<svg xmlns:xlink="http://www.w3.org/1999/xlink" width="21" xmlns="http://www.w3.org/2000/svg" height="21" id="screenshot-ba61c52d-64f4-8045-8002-59dc7c6da9c9" viewBox="0 0 21 21" style="-webkit-print-color-adjust: exact;" fill="none" version="1.1"><g id="shape-ba61c52d-64f4-8045-8002-59dc7c6da9c9" height="48" width="48" rx="0" ry="0" style="fill: rgb(0, 0, 0);"><g id="shape-ba61c52d-64f4-8045-8002-59dc7c6da9cc"><g class="fills" id="fills-ba61c52d-64f4-8045-8002-59dc7c6da9cc"><path rx="0" ry="0" d="M3.938,19.250C3.587,19.250,3.281,19.119,3.019,18.856C2.756,18.594,2.625,18.288,2.625,17.938L2.625,4.375C2.625,4.025,2.756,3.719,3.019,3.456C3.281,3.194,3.587,3.063,3.938,3.063L5.359,3.063L5.359,1.750L6.781,1.750L6.781,3.063L14.219,3.063L14.219,1.750L15.641,1.750L15.641,3.063L17.062,3.063C17.412,3.063,17.719,3.194,17.981,3.456C18.244,3.719,18.375,4.025,18.375,4.375L18.375,17.938C18.375,18.288,18.244,18.594,17.981,18.856C17.719,19.119,17.412,19.250,17.062,19.250L3.938,19.250ZZM3.938,17.938L17.062,17.938L17.062,8.531L3.938,8.531L3.938,17.938ZZM3.938,7.219L17.062,7.219L17.062,4.375L3.938,4.375L3.938,7.219ZZM3.938,7.219L3.938,4.375L3.938,7.219ZZM10.500,12.250C10.252,12.250,10.044,12.166,9.877,11.998C9.709,11.831,9.625,11.623,9.625,11.375C9.625,11.127,9.709,10.919,9.877,10.752C10.044,10.584,10.252,10.500,10.500,10.500C10.748,10.500,10.956,10.584,11.123,10.752C11.291,10.919,11.375,11.127,11.375,11.375C11.375,11.623,11.291,11.831,11.123,11.998C10.956,12.166,10.748,12.250,10.500,12.250ZZM7.000,12.250C6.752,12.250,6.544,12.166,6.377,11.998C6.209,11.831,6.125,11.623,6.125,11.375C6.125,11.127,6.209,10.919,6.377,10.752C6.544,10.584,6.752,10.500,7.000,10.500C7.248,10.500,7.456,10.584,7.623,10.752C7.791,10.919,7.875,11.127,7.875,11.375C7.875,11.623,7.791,11.831,7.623,11.998C7.456,12.166,7.248,12.250,7.000,12.250ZZM14.000,12.250C13.752,12.250,13.544,12.166,13.377,11.998C13.209,11.831,13.125,11.623,13.125,11.375C13.125,11.127,13.209,10.919,13.377,10.752C13.544,10.584,13.752,10.500,14.000,10.500C14.248,10.500,14.456,10.584,14.623,10.752C14.791,10.919,14.875,11.127,14.875,11.375C14.875,11.623,14.791,11.831,14.623,11.998C14.456,12.166,14.248,12.250,14.000,12.250ZZM10.500,15.750C10.252,15.750,10.044,15.666,9.877,15.498C9.709,15.331,9.625,15.123,9.625,14.875C9.625,14.627,9.709,14.419,9.877,14.252C10.044,14.084,10.252,14.000,10.500,14.000C10.748,14.000,10.956,14.084,11.123,14.252C11.291,14.419,11.375,14.627,11.375,14.875C11.375,15.123,11.291,15.331,11.123,15.498C10.956,15.666,10.748,15.750,10.500,15.750ZZM7.000,15.750C6.752,15.750,6.544,15.666,6.377,15.498C6.209,15.331,6.125,15.123,6.125,14.875C6.125,14.627,6.209,14.419,6.377,14.252C6.544,14.084,6.752,14.000,7.000,14.000C7.248,14.000,7.456,14.084,7.623,14.252C7.791,14.419,7.875,14.627,7.875,14.875C7.875,15.123,7.791,15.331,7.623,15.498C7.456,15.666,7.248,15.750,7.000,15.750ZZM14.000,15.750C13.752,15.750,13.544,15.666,13.377,15.498C13.209,15.331,13.125,15.123,13.125,14.875C13.125,14.627,13.209,14.419,13.377,14.252C13.544,14.084,13.752,14.000,14.000,14.000C14.248,14.000,14.456,14.084,14.623,14.252C14.791,14.419,14.875,14.627,14.875,14.875C14.875,15.123,14.791,15.331,14.623,15.498C14.456,15.666,14.248,15.750,14.000,15.750ZZ" style="fill: rgb(16, 79, 158); fill-opacity: 1;"/></g></g></g></svg>