<svg xmlns:xlink="http://www.w3.org/1999/xlink" width="63.333" xmlns="http://www.w3.org/2000/svg" height="62.5" id="screenshot-9ae70dcb-501f-80d3-8002-5700d31ee7e7" viewBox="-4295.667 6011.25 63.333 62.5" style="-webkit-print-color-adjust: exact;" fill="none" version="1.1"><g id="shape-9ae70dcb-501f-80d3-8002-5700d31ee7e7"><g class="fills" id="fills-9ae70dcb-501f-80d3-8002-5700d31ee7e7"><path rx="0" ry="0" d="M-4268.671,6056.719L-4246.267,6034.609L-4249.908,6031.094L-4268.671,6049.609L-4278.171,6040.234L-4281.733,6043.750L-4268.671,6056.719ZZM-4264.000,6073.750C-4268.328,6073.750,-4272.418,6072.930,-4276.271,6071.289C-4280.124,6069.648,-4283.488,6067.409,-4286.365,6064.570C-4289.241,6061.732,-4291.510,6058.411,-4293.173,6054.609C-4294.835,6050.807,-4295.667,6046.771,-4295.667,6042.500C-4295.667,6038.177,-4294.835,6034.115,-4293.173,6030.313C-4291.510,6026.510,-4289.241,6023.203,-4286.365,6020.391C-4283.488,6017.578,-4280.124,6015.352,-4276.271,6013.711C-4272.418,6012.070,-4268.328,6011.250,-4264.000,6011.250C-4259.619,6011.250,-4255.503,6012.070,-4251.650,6013.711C-4247.797,6015.352,-4244.446,6017.578,-4241.596,6020.391C-4238.746,6023.203,-4236.490,6026.510,-4234.827,6030.313C-4233.165,6034.115,-4232.333,6038.177,-4232.333,6042.500C-4232.333,6046.771,-4233.165,6050.807,-4234.827,6054.609C-4236.490,6058.411,-4238.746,6061.732,-4241.596,6064.570C-4244.446,6067.409,-4247.797,6069.648,-4251.650,6071.289C-4255.503,6072.930,-4259.619,6073.750,-4264.000,6073.750ZZM-4264.000,6069.063C-4256.506,6069.063,-4250.146,6066.471,-4244.921,6061.289C-4239.696,6056.107,-4237.083,6049.844,-4237.083,6042.500C-4237.083,6035.104,-4239.696,6028.828,-4244.921,6023.672C-4250.146,6018.516,-4256.506,6015.938,-4264.000,6015.938C-4271.442,6015.938,-4277.788,6018.516,-4283.040,6023.672C-4288.291,6028.828,-4290.917,6035.104,-4290.917,6042.500C-4290.917,6049.844,-4288.291,6056.107,-4283.040,6061.289C-4277.788,6066.471,-4271.442,6069.063,-4264.000,6069.063ZZM-4264.000,6042.500Z" style="fill: rgb(160, 214, 131); fill-opacity: 1;"/></g></g></svg>