<svg xmlns:xlink="http://www.w3.org/1999/xlink" width="92" xmlns="http://www.w3.org/2000/svg" height="39" id="screenshot-875045ef-50f9-8099-8002-8e7c75604145" viewBox="0 0 92 39" style="-webkit-print-color-adjust: exact;" fill="none" version="1.1"><g id="shape-875045ef-50f9-8099-8002-8e7c75604145" rx="0" ry="0"><g id="shape-875045ef-50f9-8099-8002-8e7c75604146" rx="0" ry="0"><g id="shape-875045ef-50f9-8099-8002-8e7c75604147"><g class="fills" id="fills-875045ef-50f9-8099-8002-8e7c75604147"><rect rx="16" ry="16" x="0" y="0.8181818181801646" transform="matrix(1.000000, 0.000000, 0.000000, 1.000000, 0.000000, 0.000000)" width="92" height="38.181818181819835" style="fill: rgb(16, 79, 158); fill-opacity: 1;"/></g></g><g id="shape-875045ef-50f9-8099-8002-8e7c75604149" height="48" width="48" rx="0" ry="0" style="fill: rgb(0, 0, 0);"><g id="shape-875045ef-50f9-8099-8002-8e7c7560414b"><g class="fills" id="fills-875045ef-50f9-8099-8002-8e7c7560414b"><path rx="0" ry="0" d="M38.732,28.826L40.001,28.826L52.786,16.135L51.516,14.874L38.732,27.566L38.732,28.826ZL38.732,28.826ZM56.451,14.903L52.757,11.236L53.969,10.032C54.296,9.708,54.700,9.545,55.181,9.545C55.662,9.545,56.066,9.708,56.393,10.032L57.663,11.293C57.990,11.618,58.154,12.019,58.154,12.496C58.154,12.974,57.990,13.375,57.663,13.700L56.451,14.903ZL56.451,14.903ZM55.239,16.106L40.694,30.545L37.000,30.545L37.000,26.878L51.545,12.439L55.239,16.106ZL55.239,16.106ZM52.151,15.505L51.516,14.874L52.786,16.135L52.151,15.505ZL52.151,15.505Z" style="fill: rgb(255, 255, 255); fill-opacity: 1;"/></g></g></g></g></g></svg>