<svg xmlns:xlink="http://www.w3.org/1999/xlink" width="23.333" xmlns="http://www.w3.org/2000/svg" height="23.333" id="screenshot-be5413fe-ff97-8048-8002-6295e5c538ae" viewBox="-6136 10161 23.333 23.333" style="-webkit-print-color-adjust: exact;" fill="none" version="1.1"><g id="shape-be5413fe-ff97-8048-8002-6295e5c538ae"><g class="fills" id="fills-be5413fe-ff97-8048-8002-6295e5c538ae"><path rx="0" ry="0" d="M-6126.842,10182.263C-6127.347,10181.485,-6127.765,10180.683,-6128.096,10179.856C-6128.426,10179.030,-6128.699,10178.092,-6128.912,10177.042L-6133.317,10177.042C-6132.636,10178.403,-6131.751,10179.521,-6130.662,10180.396C-6129.574,10181.271,-6128.300,10181.893,-6126.842,10182.263ZZM-6133.900,10175.292L-6129.233,10175.292C-6129.292,10174.825,-6129.331,10174.402,-6129.350,10174.023C-6129.369,10173.644,-6129.379,10173.211,-6129.379,10172.725C-6129.379,10172.317,-6129.374,10171.903,-6129.365,10171.485C-6129.355,10171.067,-6129.321,10170.596,-6129.263,10170.071L-6133.900,10170.071C-6134.036,10170.538,-6134.128,10170.970,-6134.177,10171.369C-6134.226,10171.767,-6134.250,10172.219,-6134.250,10172.725C-6134.250,10173.231,-6134.226,10173.668,-6134.177,10174.038C-6134.128,10174.407,-6134.036,10174.825,-6133.900,10175.292ZZM-6133.317,10168.321L-6128.942,10168.321C-6128.708,10167.251,-6128.417,10166.289,-6128.067,10165.433C-6127.717,10164.578,-6127.299,10163.781,-6126.813,10163.042C-6128.465,10163.606,-6129.778,10164.281,-6130.750,10165.069C-6131.722,10165.856,-6132.578,10166.940,-6133.317,10168.321ZZM-6127.133,10168.321L-6121.504,10168.321C-6121.796,10167.076,-6122.170,10166.002,-6122.627,10165.098C-6123.084,10164.194,-6123.653,10163.392,-6124.333,10162.692C-6125.014,10163.411,-6125.583,10164.238,-6126.040,10165.171C-6126.497,10166.104,-6126.861,10167.154,-6127.133,10168.321ZZM-6119.696,10168.321L-6115.350,10168.321C-6116.031,10167.057,-6116.930,10165.978,-6118.048,10165.083C-6119.166,10164.189,-6120.425,10163.518,-6121.825,10163.071C-6121.339,10163.810,-6120.926,10164.607,-6120.585,10165.462C-6120.245,10166.318,-6119.949,10167.271,-6119.696,10168.321ZZM-6124.333,10184.333C-6125.967,10184.333,-6127.493,10184.037,-6128.912,10183.444C-6130.332,10182.851,-6131.567,10182.029,-6132.617,10180.979C-6133.667,10179.929,-6134.493,10178.699,-6135.096,10177.290C-6135.699,10175.880,-6136.000,10174.358,-6136.000,10172.725C-6136.000,10171.092,-6135.699,10169.560,-6135.096,10168.131C-6134.493,10166.702,-6133.667,10165.462,-6132.617,10164.413C-6131.567,10163.363,-6130.332,10162.531,-6128.912,10161.919C-6127.493,10161.306,-6125.967,10161.000,-6124.333,10161.000C-6122.700,10161.000,-6121.174,10161.306,-6119.754,10161.919C-6118.335,10162.531,-6117.100,10163.363,-6116.050,10164.413C-6115.000,10165.462,-6114.174,10166.702,-6113.571,10168.131C-6112.968,10169.560,-6112.667,10171.092,-6112.667,10172.725C-6112.667,10173.056,-6112.676,10173.386,-6112.696,10173.717C-6112.715,10174.047,-6112.754,10174.378,-6112.813,10174.708L-6114.621,10174.708C-6114.543,10174.378,-6114.490,10174.062,-6114.460,10173.760C-6114.431,10173.459,-6114.417,10173.114,-6114.417,10172.725C-6114.417,10172.219,-6114.441,10171.767,-6114.490,10171.369C-6114.538,10170.970,-6114.631,10170.538,-6114.767,10170.071L-6119.433,10170.071C-6119.375,10170.654,-6119.331,10171.135,-6119.302,10171.515C-6119.273,10171.894,-6119.258,10172.297,-6119.258,10172.725C-6119.258,10172.997,-6119.263,10173.274,-6119.273,10173.556C-6119.283,10173.838,-6119.307,10174.222,-6119.346,10174.708L-6121.125,10174.708C-6121.086,10174.300,-6121.057,10173.950,-6121.037,10173.658C-6121.018,10173.367,-6121.008,10173.056,-6121.008,10172.725C-6121.008,10172.317,-6121.018,10171.923,-6121.037,10171.544C-6121.057,10171.165,-6121.106,10170.674,-6121.183,10170.071L-6127.454,10170.071C-6127.532,10170.674,-6127.581,10171.165,-6127.600,10171.544C-6127.619,10171.923,-6127.629,10172.317,-6127.629,10172.725C-6127.629,10173.114,-6127.619,10173.488,-6127.600,10173.848C-6127.581,10174.208,-6127.532,10174.689,-6127.454,10175.292L-6122.292,10175.292L-6122.292,10177.042L-6127.133,10177.042C-6126.744,10178.500,-6126.336,10179.657,-6125.908,10180.513C-6125.481,10181.368,-6124.956,10182.058,-6124.333,10182.583C-6123.925,10182.156,-6123.551,10181.679,-6123.210,10181.154C-6122.870,10180.629,-6122.564,10180.085,-6122.292,10179.521L-6122.292,10184.158C-6122.622,10184.217,-6122.958,10184.260,-6123.298,10184.290C-6123.638,10184.319,-6123.983,10184.333,-6124.333,10184.333ZZM-6115.058,10183.196L-6118.792,10179.462L-6118.792,10182.467L-6120.542,10182.467L-6120.542,10176.458L-6114.533,10176.458L-6114.533,10178.208L-6117.567,10178.208L-6113.833,10181.942L-6115.058,10183.196ZZ" style="fill: rgb(16, 79, 158); fill-opacity: 1;"/></g></g></svg>